<svg width="48" height="48" viewBox="0 0 48 48" fill="none" xmlns="http://www.w3.org/2000/svg">
<circle cx="24" cy="24" r="23.5" fill="white" stroke="#4960E5"/>
<path d="M23.9389 27.0476C28.0564 27.0476 31.5721 27.7003 31.5721 30.3124C31.5721 32.9235 28.0789 33.6 23.9389 33.6C19.8215 33.6 16.3058 32.9473 16.3058 30.3362C16.3058 27.7241 19.799 27.0476 23.9389 27.0476ZM30.5222 25.4747C32.0963 25.4455 33.7886 25.6616 34.414 25.8151C35.7388 26.0756 36.6102 26.6073 36.9712 27.38C37.2764 28.0144 37.2764 28.7504 36.9712 29.3837C36.419 30.5822 34.6385 30.9669 33.9466 31.0664C33.8037 31.088 33.6887 30.9637 33.7037 30.82C34.0572 27.4989 31.2453 25.9243 30.5179 25.5622C30.4867 25.546 30.4803 25.5211 30.4835 25.506C30.4857 25.4952 30.4986 25.4779 30.5222 25.4747ZM17.4788 25.4751C17.5025 25.4784 17.5143 25.4956 17.5164 25.5054C17.5197 25.5216 17.5132 25.5454 17.4831 25.5626C16.7546 25.9247 13.9427 27.4993 14.2962 30.8193C14.3113 30.9641 14.1974 31.0873 14.0545 31.0668C13.3625 30.9674 11.5821 30.5826 11.0298 29.3841C10.7236 28.7497 10.7236 28.0148 11.0298 27.3804C11.3908 26.6077 12.2611 26.076 13.586 25.8145C14.2124 25.6621 15.9036 25.4459 17.4788 25.4751ZM23.9389 14.4C26.7423 14.4 28.9901 16.6587 28.9901 19.4794C28.9901 22.2991 26.7423 24.5599 23.9389 24.5599C21.1356 24.5599 18.8878 22.2991 18.8878 19.4794C18.8878 16.6587 21.1356 14.4 23.9389 14.4ZM30.7962 15.2471C33.5039 15.2471 35.6303 17.8095 34.9061 20.6637C34.4172 22.5852 32.6475 23.8616 30.6758 23.8097C30.4781 23.8043 30.2837 23.7859 30.0956 23.7535C29.9592 23.7297 29.8904 23.5752 29.9678 23.4606C30.7199 22.3475 31.1486 21.0085 31.1486 19.5711C31.1486 18.071 30.6801 16.6726 29.8668 15.5259C29.841 15.4903 29.8216 15.4351 29.8474 15.3941C29.8689 15.3606 29.9087 15.3433 29.9463 15.3346C30.2203 15.2784 30.5018 15.2471 30.7962 15.2471ZM17.2032 15.247C17.4976 15.247 17.7791 15.2783 18.0542 15.3345C18.0907 15.3432 18.1316 15.3615 18.1531 15.394C18.1778 15.435 18.1595 15.4902 18.1337 15.5258C17.3203 16.6725 16.8519 18.0709 16.8519 19.571C16.8519 21.0084 17.2806 22.3474 18.0327 23.4605C18.1101 23.5751 18.0413 23.7296 17.9049 23.7534C17.7158 23.7869 17.5223 23.8042 17.3246 23.8096C15.353 23.8615 13.5833 22.5851 13.0944 20.6636C12.3691 17.8094 14.4955 15.247 17.2032 15.247Z" fill="#4960E5"/>
</svg>
