<svg width="28" height="20" viewBox="0 0 28 20" fill="none" xmlns="http://www.w3.org/2000/svg">
<g clip-path="url(#clip0_12_3154)">
<path d="M9.81806 1.31352C10.0473 1.54265 10.1769 1.85302 10.1786 2.17717C10.1803 2.50131 10.054 2.81302 9.82706 3.04452L4.11206 8.77352H25.8781C26.2025 8.77352 26.5138 8.90242 26.7432 9.13187C26.9727 9.36132 27.1016 9.67253 27.1016 9.99702C27.1016 10.3215 26.9727 10.6327 26.7432 10.8622C26.5138 11.0916 26.2025 11.2205 25.8781 11.2205H4.11206L9.83306 16.9515C10.058 17.184 10.1831 17.4953 10.1814 17.8189C10.1797 18.1424 10.0514 18.4524 9.82406 18.6825C9.59447 18.9096 9.2841 19.0362 8.96119 19.0345C8.63829 19.0328 8.32926 18.903 8.10206 18.6735L0.348059 10.8625C0.242209 10.7491 0.156329 10.6186 0.0940594 10.4765C0.0304361 10.3277 -0.0015737 10.1673 5.94914e-05 10.0055C8.26301e-05 9.68574 0.124946 9.3786 0.348059 9.14952L8.10206 1.33952C8.21208 1.22351 8.34416 1.13066 8.49056 1.06642C8.63697 1.00217 8.79473 0.967831 8.95459 0.965409C9.11445 0.962987 9.27318 0.992533 9.42146 1.05231C9.56974 1.11209 9.70458 1.2009 9.81806 1.31352Z" fill="white"/>
</g>
<defs>
<clipPath id="clip0_12_3154">
<rect width="27.092" height="18.069" fill="white" transform="translate(0 0.965515)"/>
</clipPath>
</defs>
</svg>
