<svg width="24" height="24" viewBox="0 0 24 24" fill="none" xmlns="http://www.w3.org/2000/svg">
<path d="M19.907 3H11.1642C10.5609 3 10.0713 3.50084 10.0713 4.11805V9.48444C10.0713 10.1017 10.5609 10.6025 11.1642 10.6025H16.7551L19.3124 13.2186C19.3561 13.2634 19.4085 13.2857 19.4653 13.2857C19.4915 13.2857 19.5221 13.2812 19.5483 13.2679C19.6313 13.2321 19.6839 13.1515 19.6839 13.0621V10.6025H19.9069C20.5102 10.6025 20.9998 10.1017 20.9998 9.48444V4.11805C20.9998 3.50084 20.5102 3 19.9069 3L19.907 3ZM20.5627 9.48452C20.5627 9.8557 20.2699 10.1553 19.907 10.1553H19.4698C19.3475 10.1553 19.2513 10.2537 19.2513 10.3789V12.5209L17 10.2179C16.9607 10.1776 16.9039 10.1508 16.8471 10.1508H11.1641C10.8012 10.1508 10.5083 9.85122 10.5083 9.48003V4.11824C10.5083 3.74706 10.8012 3.44744 11.1641 3.44744H19.9069C20.2697 3.44744 20.5626 3.74706 20.5626 4.11824L20.5627 9.48452Z" fill="black"/>
<path d="M18.8635 4.92857H12.2079C12.0915 4.92857 12 5.07002 12 5.25C12 5.42998 12.0915 5.57143 12.2079 5.57143H18.8635C18.9799 5.57143 19.0714 5.42998 19.0714 5.25C19.0714 5.07002 18.9799 4.92857 18.8635 4.92857Z" fill="black"/>
<path d="M18.8635 6.85713H12.2079C12.0915 6.85713 12 6.99858 12 7.17856C12 7.35854 12.0915 7.49999 12.2079 7.49999H18.8635C18.9799 7.49999 19.0714 7.35854 19.0714 7.17856C19.0714 6.99858 18.9799 6.85713 18.8635 6.85713Z" fill="black"/>
<path d="M18.8635 8.78571H12.2079C12.0915 8.78571 12 8.92715 12 9.10713C12 9.28712 12.0915 9.42856 12.2079 9.42856H18.8635C18.9799 9.42856 19.0714 9.28712 19.0714 9.10713C19.0714 8.92715 18.9799 8.78571 18.8635 8.78571Z" fill="black"/>
<path d="M4.09291 18.9596H4.31143V21.4191C4.31143 21.5085 4.36383 21.5891 4.44696 21.6248C4.47316 21.6383 4.50375 21.6428 4.5301 21.6428C4.58689 21.6428 4.64383 21.6205 4.68305 21.5757L7.24033 18.9596H12.8356C13.439 18.9596 13.9285 18.4588 13.9285 17.8416V12.4752C13.9285 11.858 13.439 11.3571 12.8356 11.3571H4.09291C3.48957 11.3571 3 11.858 3 12.4752V17.8416C3 18.4588 3.48957 18.9596 4.09291 18.9596ZM3.43719 12.4751C3.43719 12.1039 3.73007 11.8043 4.09291 11.8043H12.8356C13.1985 11.8043 13.4913 12.1039 13.4913 12.4751V17.8415C13.4913 18.2127 13.1985 18.5123 12.8356 18.5123H7.15303C7.09624 18.5123 7.0393 18.5346 7.00008 18.5794L4.7487 20.8779V18.7358C4.7487 18.6107 4.65253 18.5123 4.53017 18.5123H4.09298C3.73014 18.5123 3.43727 18.2127 3.43727 17.8415L3.43719 12.4751Z" fill="black"/>
<path d="M5.1364 15.2143H11.7919C11.9084 15.2143 11.9999 15.0728 11.9999 14.8928C11.9999 14.7128 11.9084 14.5714 11.7919 14.5714H5.1364C5.01997 14.5714 4.92847 14.7128 4.92847 14.8928C4.92847 15.0728 5.01997 15.2143 5.1364 15.2143Z" fill="black"/>
<path d="M5.1364 13.2857H11.7919C11.9084 13.2857 11.9999 13.1442 11.9999 12.9642C11.9999 12.7843 11.9084 12.6428 11.7919 12.6428H5.1364C5.01997 12.6428 4.92847 12.7843 4.92847 12.9642C4.92847 13.1442 5.01997 13.2857 5.1364 13.2857Z" fill="black"/>
<path d="M5.1364 17.1428H11.7919C11.9084 17.1428 11.9999 17.0014 11.9999 16.8215C11.9999 16.6416 11.9084 16.5002 11.7919 16.5002L5.1364 16.5C5.01997 16.5 4.92847 16.6414 4.92847 16.8213C4.92847 17.0014 5.01997 17.1428 5.1364 17.1428Z" fill="black"/>
</svg>
