<svg width="32" height="32" viewBox="0 0 32 32" fill="none" xmlns="http://www.w3.org/2000/svg">
<g clip-path="url(#clip0_12_152)">
<path opacity="0.1" d="M22.8296 0.994995L10.1719 0.994995C4.67995 0.994995 1.00145 4.52366 1.00145 9.77792V23.2184C1.00145 28.4726 4.6864 32.0013 10.1719 32.0013H22.8296C28.3138 31.9935 32 28.47 32 23.2106V9.77792C32 4.52366 28.3138 0.994995 22.8296 0.994995Z" fill="#4960E5"/>
<path fill-rule="evenodd" clip-rule="evenodd" d="M20.36 7.40646C21.059 7.38063 21.7555 7.50295 22.4039 7.76538C23.0523 8.02781 23.6378 8.42442 24.1221 8.92916C24.6064 9.43391 24.9784 10.0354 25.2137 10.6941C25.4491 11.3528 25.5424 12.0538 25.4877 12.7511V20.1352C25.5424 20.8326 25.4491 21.5336 25.2137 22.1923C24.9784 22.851 24.6064 23.4525 24.1221 23.9572C23.6378 24.4619 23.0523 24.8586 22.4039 25.121C21.7555 25.3834 21.059 25.5057 20.36 25.4799H12.5238C11.8254 25.505 11.1296 25.3822 10.482 25.1194C9.83439 24.8566 9.24972 24.4598 8.76633 23.9551C8.28294 23.4503 7.91177 22.8491 7.67718 22.1907C7.4426 21.5324 7.3499 20.8319 7.40517 20.1352V12.7511C7.3499 12.0544 7.4426 11.3539 7.67718 10.6956C7.91177 10.0373 8.28294 9.43603 8.76633 8.9313C9.24972 8.42657 9.83439 8.02978 10.482 7.76698C11.1296 7.50418 11.8254 7.38132 12.5238 7.40646H20.36ZM20.36 8.76523H12.5238C12.0051 8.74484 11.488 8.83584 11.0074 9.03212C10.5268 9.2284 10.0939 9.52538 9.7377 9.90307C9.38155 10.2808 9.11047 10.7304 8.94272 11.2217C8.77498 11.713 8.71445 12.2345 8.76524 12.7511V20.1352C8.71463 20.6519 8.77533 21.1734 8.94324 21.6646C9.11116 22.1558 9.38238 22.6054 9.73866 22.9829C10.0949 23.3605 10.528 23.6573 11.0086 23.8534C11.4893 24.0496 12.0064 24.1404 12.5251 24.1198H20.36C20.8793 24.1411 21.3971 24.0508 21.8785 23.855C22.36 23.6593 22.7939 23.3626 23.151 22.9851C23.5082 22.6075 23.7803 22.1578 23.9489 21.6662C24.1176 21.1746 24.179 20.6525 24.1289 20.1352V12.7511C24.1792 12.2337 24.118 11.7115 23.9494 11.2198C23.7808 10.728 23.5087 10.2781 23.1516 9.90043C22.7944 9.5227 22.3604 9.22593 21.8789 9.03011C21.3973 8.83428 20.8794 8.74396 20.36 8.76523ZM20.9386 16.5562L20.967 16.5769L20.9851 16.5937L20.9967 16.6053L21.0471 16.6557C21.2099 16.8197 21.6619 17.2808 23.0078 18.6628C23.0731 18.726 23.125 18.8017 23.1606 18.8853C23.1961 18.969 23.2145 19.0589 23.2147 19.1498C23.2148 19.2407 23.1968 19.3307 23.1615 19.4144C23.1263 19.4982 23.0746 19.5741 23.0095 19.6375C22.9444 19.7009 22.8673 19.7507 22.7826 19.7838C22.698 19.8168 22.6076 19.8326 22.5167 19.8301C22.4259 19.8276 22.3364 19.807 22.2537 19.7693C22.171 19.7316 22.0967 19.6777 22.0352 19.6108C22.0352 19.6108 20.174 17.7031 20.0423 17.5753C19.8736 17.4496 19.6637 17.3924 19.4546 17.4151C19.3438 17.4257 19.2363 17.4581 19.1381 17.5104C19.0399 17.5628 18.953 17.6339 18.8824 17.7199C16.7771 20.2734 16.7512 20.3031 16.7177 20.3316C16.3429 20.6983 15.8379 20.9013 15.3136 20.8959C14.7893 20.8906 14.2886 20.6774 13.9213 20.3031C13.9213 20.3031 13.0792 19.4481 13.0637 19.4313C12.9477 19.3358 12.7996 19.2883 12.6497 19.2986C12.4998 19.309 12.3595 19.3763 12.2577 19.4869L10.8706 20.9464C10.7448 21.0687 10.5767 21.1377 10.4012 21.1389C10.2258 21.1401 10.0567 21.0733 9.92939 20.9527C9.80204 20.832 9.72632 20.6668 9.71805 20.4915C9.70979 20.3163 9.76963 20.1446 9.88506 20.0125L11.2697 18.5517C11.6244 18.1775 12.1128 17.9589 12.6282 17.9434C13.1436 17.9279 13.6442 18.1169 14.0208 18.4691L14.8887 19.3499C15.0039 19.4677 15.1611 19.535 15.3257 19.5369C15.4904 19.5389 15.6492 19.4753 15.767 19.3603C15.8587 19.2531 17.8336 16.8558 17.8336 16.8558C18.2062 16.4039 18.743 16.1184 19.326 16.0622C19.909 16.006 20.4905 16.1837 20.9425 16.5562H20.9386ZM13.3466 11.6003C13.7957 11.6 14.2348 11.7331 14.6082 11.9825C14.9817 12.2319 15.2728 12.5866 15.4446 13.0015C15.6164 13.4165 15.6612 13.8731 15.5734 14.3135C15.4855 14.7539 15.269 15.1584 14.9512 15.4757C14.6333 15.793 14.2285 16.0089 13.7879 16.0959C13.3473 16.183 12.8908 16.1374 12.4761 15.9649C12.0615 15.7924 11.7073 15.5007 11.4585 15.1268C11.2097 14.7529 11.0775 14.3136 11.0785 13.8645C11.0809 13.2641 11.3207 12.6889 11.7457 12.2647C12.1706 11.8405 12.7461 11.6017 13.3466 11.6003ZM13.3466 12.9604C13.1681 12.9619 12.994 13.0162 12.8464 13.1165C12.6987 13.2168 12.5841 13.3585 12.5168 13.5238C12.4496 13.6892 12.4328 13.8707 12.4685 14.0456C12.5043 14.2204 12.591 14.3808 12.7177 14.5065C12.8445 14.6322 13.0056 14.7175 13.1808 14.7518C13.3559 14.786 13.5373 14.7677 13.7021 14.699C13.8668 14.6304 14.0076 14.5145 14.1066 14.366C14.2056 14.2175 14.2584 14.043 14.2584 13.8645C14.2584 13.7451 14.2348 13.6269 14.1889 13.5167C14.143 13.4065 14.0757 13.3065 13.9909 13.2224C13.9061 13.1384 13.8055 13.0719 13.6949 13.027C13.5843 12.982 13.4659 12.9593 13.3466 12.9604Z" fill="#4960E5"/>
</g>
<defs>
<clipPath id="clip0_12_152">
<rect width="31.005" height="31.005" fill="white" transform="translate(0.994995 0.994995)"/>
</clipPath>
</defs>
</svg>
