<svg width="29" height="29" viewBox="0 0 29 29" fill="none" xmlns="http://www.w3.org/2000/svg">
    <path fill-rule="evenodd" clip-rule="evenodd"
        d="M14.04 0.959961C6.30822 0.959961 0.0400391 7.22814 0.0400391 14.96C0.0400391 22.6918 6.30822 28.96 14.04 28.96C21.7719 28.96 28.04 22.6918 28.04 14.96C28.04 7.22814 21.7719 0.959961 14.04 0.959961ZM18.758 12.0416C18.9899 11.8016 19.1182 11.4801 19.1153 11.1464C19.1124 10.8127 18.9785 10.4934 18.7425 10.2575C18.5066 10.0215 18.1873 9.88764 17.8536 9.88474C17.5199 9.88184 17.1984 10.0101 16.9584 10.242L14.04 13.1603L11.1217 10.242C11.0043 10.1204 10.8638 10.0234 10.7086 9.95674C10.5533 9.89004 10.3863 9.85493 10.2173 9.85346C10.0483 9.85199 9.88069 9.88419 9.72428 9.94819C9.56787 10.0122 9.42576 10.1067 9.30626 10.2262C9.18676 10.3457 9.09226 10.4878 9.02827 10.6442C8.96427 10.8006 8.93207 10.9682 8.93354 11.1372C8.93501 11.3062 8.97012 11.4732 9.03682 11.6285C9.10352 11.7838 9.20048 11.9242 9.32204 12.0416L12.2404 14.96L9.32204 17.8783C9.20048 17.9957 9.10352 18.1362 9.03682 18.2914C8.97012 18.4467 8.93501 18.6137 8.93354 18.7827C8.93207 18.9517 8.96427 19.1193 9.02827 19.2757C9.09226 19.4321 9.18676 19.5742 9.30626 19.6937C9.42576 19.8132 9.56787 19.9077 9.72428 19.9717C9.88069 20.0357 10.0483 20.0679 10.2173 20.0665C10.3863 20.065 10.5533 20.0299 10.7086 19.9632C10.8638 19.8965 11.0043 19.7995 11.1217 19.678L14.04 16.7596L16.9584 19.678C17.1984 19.9098 17.5199 20.0381 17.8536 20.0352C18.1873 20.0323 18.5066 19.8984 18.7425 19.6625C18.9785 19.4265 19.1124 19.1073 19.1153 18.7736C19.1182 18.4399 18.9899 18.1184 18.758 17.8783L15.8397 14.96L18.758 12.0416Z"
        fill="#27256C" />
</svg>
