<svg width="56" height="56" viewBox="0 0 56 56" fill="none" xmlns="http://www.w3.org/2000/svg">
<g clip-path="url(#clip0_12_220)">
<path d="M43.7284 0H12.2716C5.4942 0 0 5.4942 0 12.2716V43.7284C0 50.5058 5.4942 56 12.2716 56H43.7284C50.5058 56 56 50.5058 56 43.7284V12.2716C56 5.4942 50.5058 0 43.7284 0Z" fill="#4960E5"/>
<path d="M14.2971 34.3443C13.952 34.3443 13.6759 34.2465 13.4689 34.0509C13.2733 33.8439 13.1755 33.5736 13.1755 33.24V23.9227H10.0353C9.34509 23.9227 9 23.6178 9 23.0082C9 22.3985 9.34509 22.0937 10.0353 22.0937H18.5416C19.2318 22.0937 19.5769 22.3985 19.5769 23.0082C19.5769 23.6178 19.2318 23.9227 18.5416 23.9227H15.4013V33.24C15.4013 33.5736 15.2978 33.8439 15.0908 34.0509C14.8952 34.2465 14.6307 34.3443 14.2971 34.3443ZM31.6942 22.0074C32.0163 22.0074 32.2751 22.111 32.4707 22.318C32.6662 22.5136 32.764 22.7781 32.764 23.1117V33.3263C32.764 33.6483 32.672 33.9014 32.4879 34.0855C32.3039 34.2695 32.0623 34.3615 31.7633 34.3615C31.4642 34.3615 31.2284 34.2695 31.0558 34.0855C30.8833 33.9014 30.797 33.6483 30.797 33.3263V26.2175L27.8638 31.7734C27.7258 32.0264 27.5762 32.2162 27.4152 32.3428C27.2541 32.4578 27.0643 32.5153 26.8458 32.5153C26.6272 32.5153 26.4374 32.4578 26.2764 32.3428C26.1154 32.2277 25.9658 32.0379 25.8278 31.7734L22.8773 26.3038V33.3263C22.8773 33.6368 22.7853 33.8899 22.6012 34.0855C22.4287 34.2695 22.1929 34.3615 21.8938 34.3615C21.5947 34.3615 21.3589 34.2695 21.1864 34.0855C21.0138 33.9014 20.9276 33.6483 20.9276 33.3263V23.1117C20.9276 22.7781 21.0196 22.5136 21.2036 22.318C21.3992 22.111 21.658 22.0074 21.9801 22.0074C22.4287 22.0074 22.7795 22.2548 23.0326 22.7494L26.863 30.0479L30.6762 22.7494C30.9293 22.2548 31.2686 22.0074 31.6942 22.0074ZM39.6109 34.4133C38.7251 34.4133 37.8854 34.2983 37.0917 34.0682C36.3095 33.8266 35.6711 33.5046 35.1765 33.102C34.9119 32.9064 34.7797 32.6303 34.7797 32.2738C34.7797 32.0322 34.8487 31.8251 34.9867 31.6526C35.1363 31.4686 35.3088 31.3765 35.5043 31.3765C35.7114 31.3765 35.9472 31.457 36.2118 31.6181C36.7064 31.9747 37.224 32.2335 37.7647 32.3945C38.3053 32.5556 38.9034 32.6361 39.5591 32.6361C40.3988 32.6361 41.043 32.4923 41.4916 32.2047C41.9402 31.9057 42.1645 31.4743 42.1645 30.9107C42.1645 30.4736 41.9517 30.14 41.5261 29.9099C41.112 29.6684 40.4161 29.4383 39.4383 29.2197C38.4261 29.0012 37.6036 28.7481 36.971 28.4606C36.3383 28.173 35.8609 27.8049 35.5389 27.3563C35.2168 26.9077 35.0557 26.3383 35.0557 25.6481C35.0557 24.9349 35.257 24.2965 35.6596 23.7329C36.0622 23.1692 36.6201 22.7321 37.3333 22.4216C38.058 22.0995 38.8689 21.9384 39.7662 21.9384C41.4111 21.9384 42.7511 22.3755 43.7864 23.2498C43.9359 23.3763 44.0395 23.5028 44.097 23.6294C44.166 23.7444 44.2005 23.8939 44.2005 24.078C44.2005 24.3195 44.1257 24.5323 43.9762 24.7164C43.8382 24.8889 43.6714 24.9752 43.4758 24.9752C43.3608 24.9752 43.2515 24.9579 43.148 24.9234C43.056 24.8889 42.9294 24.8256 42.7684 24.7336C42.2968 24.3885 41.8367 24.1355 41.3881 23.9744C40.9509 23.8019 40.4103 23.7156 39.7662 23.7156C38.984 23.7156 38.3628 23.8767 37.9027 24.1987C37.4541 24.5093 37.2298 24.9464 37.2298 25.5101C37.2298 25.9817 37.4311 26.344 37.8337 26.5971C38.2363 26.8502 38.9207 27.086 39.8869 27.3045C40.9107 27.5346 41.7389 27.7934 42.3716 28.081C43.0157 28.357 43.5046 28.7136 43.8382 29.1507C44.1833 29.5878 44.3558 30.1342 44.3558 30.7899C44.3558 31.5031 44.1545 32.1357 43.7519 32.6879C43.3608 33.2285 42.8029 33.6541 42.0782 33.9647C41.3651 34.2637 40.5426 34.4133 39.6109 34.4133Z" fill="white"/>
</g>
<defs>
<clipPath id="clip0_12_220">
<rect width="56" height="56" fill="white"/>
</clipPath>
</defs>
</svg>
