<svg width="24" height="24" viewBox="0 0 24 24" fill="none" xmlns="http://www.w3.org/2000/svg">
<g clip-path="url(#clip0_207_110)">
<mask id="mask0_207_110" style="mask-type:luminance" maskUnits="userSpaceOnUse" x="0" y="0" width="24" height="24">
<path d="M24 0H0V24H24V0Z" fill="white"/>
</mask>
<g mask="url(#mask0_207_110)">
<path d="M3.08106 13.6268L10.0819 12.2265C10.7071 12.1016 10.7071 11.8984 10.0819 11.7735L3.08106 10.3733C2.66406 10.29 2.25793 9.8835 2.17468 9.46688L0.774434 2.466C0.649184 1.8405 1.01781 1.54988 1.59718 1.81725L22.9606 11.6771C23.3464 11.8552 23.3464 12.1448 22.9606 12.3229L1.59718 22.1827C1.01781 22.4501 0.649184 22.1595 0.774434 21.534L2.17468 14.5331C2.25793 14.1165 2.66406 13.71 3.08106 13.6268Z" fill="#27256C"/>
</g>
</g>
<defs>
<clipPath id="clip0_207_110">
<rect width="24" height="24" fill="white"/>
</clipPath>
</defs>
</svg>
