<svg width="32" height="32" viewBox="0 0 32 32" fill="none" xmlns="http://www.w3.org/2000/svg">
<g clip-path="url(#clip0_12_145)">
<path opacity="0.1" d="M21.9086 0.994995L9.25084 0.994995C3.75893 0.994995 0.080431 4.52366 0.080431 9.77792V23.2184C0.080431 28.4726 3.76538 32.0013 9.25084 32.0013H21.9086C27.3927 31.9935 31.079 28.47 31.079 23.2106V9.77792C31.079 4.52366 27.3927 0.994995 21.9086 0.994995Z" fill="#4960E5"/>
<path fill-rule="evenodd" clip-rule="evenodd" d="M14.7621 18.2689L17.9007 23.3669C17.9444 23.4418 18.0097 23.5017 18.0881 23.5388C18.1665 23.5759 18.2542 23.5885 18.3398 23.5748C18.4264 23.5647 18.508 23.5289 18.574 23.4721C18.6401 23.4152 18.6876 23.3399 18.7105 23.2558L22.6357 9.99487C22.6598 9.91652 22.6619 9.83307 22.6419 9.7536C22.6219 9.67412 22.5804 9.60166 22.5221 9.5441C22.4661 9.48698 22.3957 9.44621 22.3183 9.42618C22.2409 9.40615 22.1595 9.40762 22.0829 9.43044L8.81553 13.3156C8.7323 13.3409 8.65808 13.3896 8.6017 13.4559C8.54531 13.5221 8.50912 13.6032 8.49743 13.6894C8.48573 13.7756 8.49902 13.8634 8.53572 13.9423C8.57241 14.0212 8.63098 14.0879 8.70445 14.1345L13.8554 17.3557L18.4057 12.7563C18.4629 12.6875 18.5337 12.6313 18.6138 12.5914C18.6938 12.5514 18.7813 12.5284 18.8706 12.524C18.96 12.5196 19.0493 12.5339 19.1329 12.5658C19.2164 12.5977 19.2925 12.6467 19.3561 12.7095C19.4198 12.7724 19.4697 12.8478 19.5027 12.9309C19.5357 13.0141 19.551 13.1032 19.5478 13.1926C19.5445 13.282 19.5227 13.3698 19.4838 13.4503C19.4448 13.5308 19.3895 13.6024 19.3215 13.6604L14.7621 18.2689ZM18.2727 24.8561C17.9778 24.8564 17.6878 24.7806 17.4307 24.636C17.1737 24.4914 16.9583 24.2829 16.8054 24.0308L13.4769 18.637L8.02248 15.2297C7.73726 15.0521 7.50952 14.7958 7.36675 14.4916C7.22399 14.1874 7.17229 13.8484 7.2179 13.5155C7.2635 13.1826 7.40447 12.87 7.62378 12.6154C7.8431 12.3609 8.13139 12.1752 8.45388 12.0808L21.72 8.19566C22.0196 8.10876 22.3371 8.10421 22.6391 8.1825C22.9411 8.26079 23.2165 8.41902 23.4361 8.64055C23.6558 8.86208 23.8117 9.13872 23.8875 9.44137C23.9632 9.74402 23.956 10.0615 23.8666 10.3604L19.944 23.6161C19.8518 23.939 19.6667 24.2277 19.4118 24.4463C19.1569 24.6649 18.8435 24.8038 18.5103 24.8458C18.4315 24.8564 18.3522 24.862 18.2727 24.8625V24.8561Z" fill="#4960E5"/>
</g>
<defs>
<clipPath id="clip0_12_145">
<rect width="31.005" height="31.005" fill="white" transform="translate(0.0739746 0.994995)"/>
</clipPath>
</defs>
</svg>
