<svg width="225" height="105" viewBox="0 0 225 105" fill="none" xmlns="http://www.w3.org/2000/svg">
<g clip-path="url(#clip0_206_157)">
<rect x="36" width="153" height="47.6778" rx="12" fill="#646BC6"/>
<rect x="36" width="153" height="47.6778" rx="9" fill="#646BC6"/>
<path d="M76.8788 18.2664C73.7431 18.1568 72.1648 20.4233 70.8767 22.6765H73.359C74.3089 21.2445 75.2525 20.43 76.8162 20.4949H76.8558C78.5949 20.4949 79.9999 22.0567 79.9185 23.9362C79.8433 25.6993 78.4216 27.1157 76.7765 27.0709C76.1293 27.0575 75.5176 26.827 75.0103 26.4153C74.8141 26.2565 74.7055 25.9924 74.764 25.7374C74.7744 25.6837 74.7953 25.63 74.8224 25.5852C74.8913 25.4711 75.1565 25.1668 76.0479 25.0326V25.6143L77.4696 24.735L78.8913 23.8556L77.4696 22.9763L76.0479 22.097V22.7973C75.384 22.8711 74.8078 23.0188 74.3318 23.2538C73.7848 23.5223 73.3652 23.8982 73.0771 24.3747C72.8788 24.7014 72.7535 25.084 72.6993 25.4823C72.6679 25.6725 72.6554 25.8649 72.6638 26.0573C72.7201 27.3998 73.5176 28.1762 74.6032 28.7468C75.3026 29.1093 76.075 29.3039 76.8537 29.3039C79.693 29.3039 81.9999 26.8293 81.9999 23.7863C82.0041 20.75 79.7076 18.2798 76.8788 18.2664Z" fill="white"/>
<path d="M70.5511 23.2515H64.5177V25.4801H69.2213C69.0877 25.6792 68.9499 25.8716 68.8058 26.0551C68.6346 26.2833 68.4509 26.4959 68.2568 26.6973C67.8977 27.0776 67.501 27.4043 67.0543 27.6773C67.0167 27.6997 66.9791 27.7265 66.9415 27.7467C66.9019 27.769 66.8601 27.7892 66.8205 27.8093C66.357 28.0599 65.8413 28.2501 65.2568 28.3552C65.2505 28.3552 65.2463 28.3575 65.2401 28.3575H65.2296C64.9541 28.4067 64.6618 28.438 64.3549 28.4492H64.3445V28.4515C63.167 28.4403 62.1023 27.9189 61.3319 27.0866C60.5595 26.252 60.0814 25.1064 60.0814 23.84C60.0814 21.2982 62.0104 19.2285 64.382 19.2285C65.9478 19.2285 67.3591 20.128 68.1106 21.5399L69.5511 19.8215C68.3758 18.0785 66.4718 17 64.382 17C60.8643 17 58 20.0676 58 23.84C58 27.6102 60.8643 30.6778 64.382 30.6778H64.428C64.8309 30.6755 65.2296 30.6308 65.6138 30.5502C65.6534 30.5413 65.6952 30.5323 65.7369 30.5234C65.7453 30.5211 65.7557 30.5167 65.7641 30.5144C68.5574 29.9528 70.1628 28.0196 71.3737 26.0529C71.4927 25.8605 71.6075 25.6703 71.7161 25.4778C71.9102 25.1512 72.0919 24.8223 72.2714 24.5023C72.524 24.0548 72.762 23.6342 72.9958 23.2493H70.5511V23.2515Z" fill="white"/>
<path d="M89.209 29.8389H86.6357V19.8447H83.3403V17.7031H92.5044V19.8447H89.209V29.8389ZM99.3525 20.3843C99.6956 20.3843 99.9806 20.4092 100.208 20.459L100.017 22.833C99.8118 22.7777 99.5628 22.75 99.2695 22.75C98.4616 22.75 97.8307 22.9575 97.377 23.3726C96.9287 23.7876 96.7046 24.3687 96.7046 25.1157V29.8389H94.1729V20.5586H96.0903L96.4639 22.1191H96.5884C96.8761 21.599 97.2635 21.1812 97.7505 20.8657C98.243 20.5448 98.777 20.3843 99.3525 20.3843ZM107.786 29.8389L107.296 28.5771H107.23C106.804 29.1139 106.364 29.4875 105.91 29.6978C105.462 29.9025 104.875 30.0049 104.15 30.0049C103.259 30.0049 102.557 29.7503 102.042 29.2412C101.533 28.7321 101.278 28.0072 101.278 27.0664C101.278 26.0814 101.621 25.3564 102.308 24.8916C102.999 24.4212 104.04 24.1611 105.429 24.1113L107.039 24.0615V23.6548C107.039 22.714 106.558 22.2437 105.595 22.2437C104.853 22.2437 103.982 22.4678 102.98 22.916L102.142 21.2061C103.21 20.6471 104.394 20.3677 105.694 20.3677C106.939 20.3677 107.894 20.6388 108.558 21.1812C109.222 21.7235 109.554 22.548 109.554 23.6548V29.8389H107.786ZM107.039 25.5391L106.06 25.5723C105.324 25.5944 104.776 25.7272 104.416 25.9707C104.056 26.2142 103.876 26.585 103.876 27.083C103.876 27.7969 104.286 28.1538 105.105 28.1538C105.692 28.1538 106.159 27.985 106.508 27.6475C106.862 27.3099 107.039 26.8617 107.039 26.3027V25.5391ZM120.735 29.8389H118.204V24.4185C118.204 23.7489 118.085 23.248 117.847 22.916C117.609 22.5785 117.23 22.4097 116.709 22.4097C116.001 22.4097 115.489 22.6476 115.174 23.1235C114.858 23.5939 114.701 24.377 114.701 25.4727V29.8389H112.169V20.5586H114.103L114.443 21.7456H114.584C114.867 21.2974 115.254 20.9598 115.747 20.7329C116.245 20.5005 116.809 20.3843 117.44 20.3843C118.519 20.3843 119.338 20.6776 119.897 21.2642C120.456 21.8452 120.735 22.6864 120.735 23.7876V29.8389ZM129.816 27.083C129.816 28.0348 129.484 28.7598 128.82 29.2578C128.162 29.7559 127.174 30.0049 125.857 30.0049C125.182 30.0049 124.606 29.9578 124.13 29.8638C123.654 29.7752 123.209 29.6424 122.794 29.4653V27.3735C123.264 27.5949 123.793 27.7803 124.379 27.9297C124.972 28.0791 125.492 28.1538 125.94 28.1538C126.859 28.1538 127.318 27.8882 127.318 27.3569C127.318 27.1577 127.257 26.9972 127.135 26.8755C127.014 26.7482 126.803 26.6071 126.504 26.4521C126.206 26.2917 125.807 26.1063 125.309 25.896C124.595 25.5972 124.069 25.3205 123.732 25.0659C123.4 24.8114 123.156 24.5208 123.001 24.1943C122.852 23.8623 122.777 23.4556 122.777 22.9741C122.777 22.1496 123.096 21.5132 123.732 21.0649C124.374 20.6112 125.281 20.3843 126.455 20.3843C127.572 20.3843 128.66 20.6278 129.717 21.1147L128.953 22.9409C128.488 22.7417 128.054 22.5785 127.65 22.4512C127.246 22.3239 126.834 22.2603 126.413 22.2603C125.666 22.2603 125.292 22.4622 125.292 22.8662C125.292 23.0931 125.411 23.2896 125.649 23.4556C125.893 23.6216 126.421 23.8678 127.235 24.1943C127.96 24.4876 128.491 24.7616 128.829 25.0161C129.166 25.2707 129.415 25.564 129.576 25.896C129.736 26.228 129.816 26.6237 129.816 27.083ZM136.889 30.0049C135.799 30.0049 134.944 29.6092 134.324 28.8179H134.191C134.279 29.5926 134.324 30.0409 134.324 30.1626V33.9229H131.792V20.5586H133.851L134.208 21.7622H134.324C134.916 20.8436 135.793 20.3843 136.955 20.3843C138.051 20.3843 138.909 20.8076 139.528 21.6543C140.148 22.501 140.458 23.6769 140.458 25.1821C140.458 26.1727 140.311 27.0332 140.018 27.7637C139.73 28.4941 139.318 29.0503 138.781 29.4321C138.244 29.814 137.614 30.0049 136.889 30.0049ZM136.142 22.4097C135.516 22.4097 135.06 22.6034 134.772 22.9907C134.484 23.3726 134.335 24.0062 134.324 24.8916V25.1655C134.324 26.1616 134.47 26.8755 134.764 27.3071C135.062 27.7388 135.533 27.9546 136.175 27.9546C137.309 27.9546 137.876 27.0194 137.876 25.1489C137.876 24.2358 137.735 23.5524 137.453 23.0986C137.176 22.6393 136.739 22.4097 136.142 22.4097ZM144.567 25.1821C144.567 26.1007 144.716 26.7952 145.015 27.2656C145.319 27.736 145.812 27.9712 146.493 27.9712C147.168 27.9712 147.652 27.7388 147.945 27.2739C148.244 26.8035 148.394 26.1063 148.394 25.1821C148.394 24.2635 148.244 23.5745 147.945 23.1152C147.646 22.6559 147.157 22.4263 146.476 22.4263C145.801 22.4263 145.314 22.6559 145.015 23.1152C144.716 23.569 144.567 24.258 144.567 25.1821ZM150.983 25.1821C150.983 26.6929 150.585 27.8743 149.788 28.7266C148.991 29.5788 147.882 30.0049 146.459 30.0049C145.569 30.0049 144.783 29.8112 144.102 29.4238C143.421 29.0309 142.898 28.4692 142.533 27.7388C142.168 27.0083 141.985 26.1561 141.985 25.1821C141.985 23.6659 142.381 22.4871 143.172 21.646C143.964 20.8049 145.076 20.3843 146.509 20.3843C147.4 20.3843 148.186 20.578 148.867 20.9653C149.547 21.3527 150.07 21.9089 150.436 22.6338C150.801 23.3587 150.983 24.2082 150.983 25.1821ZM158.255 20.3843C158.598 20.3843 158.883 20.4092 159.11 20.459L158.919 22.833C158.714 22.7777 158.465 22.75 158.172 22.75C157.364 22.75 156.733 22.9575 156.279 23.3726C155.831 23.7876 155.607 24.3687 155.607 25.1157V29.8389H153.075V20.5586H154.993L155.366 22.1191H155.491C155.778 21.599 156.166 21.1812 156.653 20.8657C157.145 20.5448 157.679 20.3843 158.255 20.3843ZM164.705 27.9878C165.147 27.9878 165.679 27.891 166.298 27.6973V29.5815C165.667 29.8638 164.893 30.0049 163.974 30.0049C162.961 30.0049 162.223 29.7503 161.758 29.2412C161.299 28.7266 161.069 27.9574 161.069 26.9336V22.4595H159.857V21.3887L161.251 20.542L161.982 18.583H163.601V20.5586H166.199V22.4595H163.601V26.9336C163.601 27.2933 163.7 27.5589 163.899 27.7305C164.104 27.902 164.373 27.9878 164.705 27.9878Z" fill="white"/>
</g>
<path d="M27.605 80.8517C23.0199 80.6914 20.7121 84.0057 18.8286 87.3003H22.4582C23.8472 85.2064 25.227 84.0155 27.5134 84.1104H27.5714C30.1143 84.1104 32.1688 86.394 32.0497 89.1422C31.9398 91.7204 29.8609 93.7914 27.4554 93.7259C26.5091 93.7063 25.6147 93.3693 24.8729 92.7673C24.5859 92.535 24.4272 92.149 24.5127 91.776C24.5279 91.6975 24.5585 91.6189 24.5981 91.5535C24.6989 91.3867 25.0866 90.9417 26.3901 90.7454V91.596L28.4689 90.3102L30.5478 89.0245L28.4689 87.7387L26.3901 86.4529V87.4769C25.4193 87.5849 24.5768 87.8008 23.8808 88.1444C23.081 88.537 22.4674 89.0866 22.0461 89.7835C21.7561 90.2612 21.573 90.8206 21.4936 91.403C21.4478 91.6811 21.4295 91.9625 21.4417 92.2438C21.5241 94.2069 22.6902 95.3421 24.2776 96.1764C25.3003 96.7065 26.4297 96.9911 27.5684 96.9911C31.72 96.9911 35.0932 93.3726 35.0932 88.923C35.0993 84.4833 31.7414 80.8714 27.605 80.8517Z" fill="black"/>
<path d="M18.3526 88.1412H9.53042V91.3998H16.4081C16.2127 91.691 16.0112 91.9724 15.8006 92.2406C15.5503 92.5743 15.2816 92.8852 14.9977 93.1796C14.4727 93.7358 13.8927 94.2135 13.2394 94.6126C13.1845 94.6453 13.1295 94.6846 13.0746 94.714C13.0166 94.7468 12.9555 94.7762 12.8975 94.8057C12.2198 95.1721 11.4658 95.4502 10.6111 95.604C10.6019 95.604 10.5958 95.6072 10.5866 95.6072H10.5714C10.1684 95.6792 9.74106 95.725 9.29231 95.7414H9.27705V95.7446C7.55535 95.7283 5.99849 94.966 4.87205 93.7489C3.74257 92.5285 3.04351 90.8534 3.04351 89.0016C3.04351 85.285 5.86417 82.2586 9.332 82.2586C11.6215 82.2586 13.6851 83.5739 14.7841 85.6383L16.8904 83.1256C15.1717 80.577 12.3877 79 9.332 79C4.18825 79 0 83.4855 0 89.0016C0 94.5145 4.18825 99 9.332 99H9.39916C9.98832 98.9967 10.5714 98.9313 11.1331 98.8135C11.1911 98.8004 11.2521 98.7873 11.3132 98.7743C11.3254 98.771 11.3407 98.7644 11.3529 98.7612C15.4373 97.94 17.7848 95.1132 19.5554 92.2374C19.7294 91.956 19.8973 91.6779 20.056 91.3965C20.3399 90.9189 20.6055 90.4379 20.868 89.9701C21.2374 89.3157 21.5854 88.7006 21.9273 88.1379H18.3526V88.1412Z" fill="black"/>
<path d="M45.6346 98.2266H41.8719V83.6129H37.0533V80.4814H50.4533V83.6129H45.6346V98.2266ZM60.4668 84.4019C60.9685 84.4019 61.3852 84.4383 61.717 84.5111L61.4378 87.9825C61.1384 87.9015 60.7743 87.8611 60.3454 87.8611C59.164 87.8611 58.2416 88.1645 57.578 88.7714C56.9226 89.3783 56.5949 90.2279 56.5949 91.3203V98.2266H52.8929V84.6568H55.6967L56.2429 86.9386H56.425C56.8457 86.178 57.4122 85.5671 58.1242 85.1058C58.8444 84.6365 59.6253 84.4019 60.4668 84.4019ZM72.7986 98.2266L72.0825 96.3817H71.9854C71.3623 97.1666 70.719 97.7128 70.0555 98.0203C69.4001 98.3197 68.5424 98.4694 67.4823 98.4694C66.1796 98.4694 65.1519 98.0972 64.3994 97.3527C63.6549 96.6083 63.2827 95.5483 63.2827 94.1727C63.2827 92.7323 63.7844 91.6723 64.7878 90.9926C65.7993 90.3048 67.3205 89.9245 69.3515 89.8517L71.7062 89.7788V89.1841C71.7062 87.8085 71.0023 87.1207 69.5943 87.1207C68.51 87.1207 67.2355 87.4484 65.7709 88.1038L64.545 85.6035C66.1067 84.7862 67.8384 84.3776 69.7399 84.3776C71.5606 84.3776 72.9564 84.7741 73.9274 85.5671C74.8984 86.3601 75.3839 87.5657 75.3839 89.1841V98.2266H72.7986ZM71.7062 91.9393L70.274 91.9879C69.1978 92.0202 68.3967 92.2145 67.8708 92.5705C67.3448 92.9265 67.0818 93.4687 67.0818 94.1969C67.0818 95.2408 67.6806 95.7627 68.8782 95.7627C69.7359 95.7627 70.4197 95.5159 70.9294 95.0223C71.4473 94.5287 71.7062 93.8733 71.7062 93.056V91.9393ZM91.7333 98.2266H88.0314V90.3008C88.0314 89.3216 87.8574 88.5893 87.5094 88.1038C87.1615 87.6102 86.6072 87.3634 85.8466 87.3634C84.8108 87.3634 84.0623 87.7114 83.6011 88.4073C83.1399 89.0951 82.9093 90.2401 82.9093 91.8422V98.2266H79.2073V84.6568H82.0354L82.533 86.3924H82.7393C83.152 85.737 83.7184 85.2434 84.4386 84.9116C85.1669 84.5718 85.9922 84.4019 86.9147 84.4019C88.4926 84.4019 89.6902 84.8307 90.5074 85.6885C91.3247 86.5381 91.7333 87.768 91.7333 89.3783V98.2266ZM105.012 94.1969C105.012 95.5887 104.526 96.6487 103.555 97.377C102.592 98.1052 101.148 98.4694 99.2222 98.4694C98.2351 98.4694 97.3935 98.4006 96.6976 98.263C96.0017 98.1336 95.3503 97.9394 94.7435 97.6804V94.6217C95.4313 94.9454 96.204 95.2165 97.0617 95.435C97.9276 95.6534 98.6882 95.7627 99.3436 95.7627C100.687 95.7627 101.358 95.3743 101.358 94.5975C101.358 94.3062 101.269 94.0715 101.091 93.8935C100.913 93.7074 100.606 93.501 100.169 93.2745C99.732 93.0398 99.1494 92.7687 98.4212 92.4612C97.3773 92.0243 96.6086 91.6197 96.115 91.2475C95.6295 90.8753 95.2735 90.4504 95.0469 89.973C94.8284 89.4875 94.7192 88.8928 94.7192 88.1888C94.7192 86.9831 95.1845 86.0526 96.115 85.3971C97.0537 84.7336 98.3807 84.4019 100.096 84.4019C101.731 84.4019 103.321 84.7579 104.866 85.47L103.75 88.1403C103.07 87.8489 102.435 87.6102 101.844 87.4241C101.253 87.238 100.65 87.145 100.035 87.145C98.9431 87.145 98.3969 87.4403 98.3969 88.031C98.3969 88.3628 98.5709 88.65 98.9188 88.8928C99.2748 89.1355 100.048 89.4956 101.237 89.973C102.297 90.4019 103.074 90.8024 103.568 91.1747C104.061 91.5469 104.425 91.9757 104.66 92.4612C104.895 92.9468 105.012 93.5253 105.012 94.1969ZM115.353 98.4694C113.759 98.4694 112.509 97.8908 111.603 96.7337H111.408C111.538 97.8665 111.603 98.522 111.603 98.7V104.198H107.901V84.6568H110.911L111.433 86.4167H111.603C112.468 85.0735 113.751 84.4019 115.45 84.4019C117.052 84.4019 118.307 85.0209 119.213 86.2589C120.119 87.497 120.572 89.2165 120.572 91.4174C120.572 92.8658 120.358 94.1241 119.929 95.1922C119.508 96.2603 118.905 97.0735 118.121 97.6319C117.336 98.1902 116.413 98.4694 115.353 98.4694ZM114.261 87.3634C113.346 87.3634 112.679 87.6467 112.258 88.2131C111.837 88.7714 111.619 89.6979 111.603 90.9926V91.3931C111.603 92.8497 111.817 93.8935 112.246 94.5246C112.683 95.1558 113.371 95.4714 114.309 95.4714C115.968 95.4714 116.798 94.1039 116.798 91.3689C116.798 90.0337 116.591 89.0344 116.179 88.3709C115.774 87.6993 115.135 87.3634 114.261 87.3634ZM126.58 91.4174C126.58 92.7606 126.799 93.7762 127.236 94.464C127.681 95.1518 128.401 95.4957 129.396 95.4957C130.384 95.4957 131.092 95.1558 131.52 94.4761C131.957 93.7883 132.176 92.7687 132.176 91.4174C132.176 90.0742 131.957 89.0668 131.52 88.3951C131.084 87.7235 130.367 87.3877 129.372 87.3877C128.385 87.3877 127.673 87.7235 127.236 88.3951C126.799 89.0587 126.58 90.0661 126.58 91.4174ZM135.963 91.4174C135.963 93.6265 135.38 95.3541 134.215 96.6002C133.05 97.8463 131.427 98.4694 129.348 98.4694C128.045 98.4694 126.896 98.1862 125.901 97.6197C124.905 97.0452 124.141 96.2239 123.607 95.1558C123.073 94.0877 122.806 92.8416 122.806 91.4174C122.806 89.2003 123.384 87.4767 124.541 86.2468C125.698 85.0168 127.325 84.4019 129.421 84.4019C130.723 84.4019 131.872 84.6851 132.868 85.2515C133.863 85.8179 134.628 86.6311 135.162 87.6912C135.696 88.7512 135.963 89.9933 135.963 91.4174ZM146.595 84.4019C147.097 84.4019 147.514 84.4383 147.846 84.5111L147.566 87.9825C147.267 87.9015 146.903 87.8611 146.474 87.8611C145.293 87.8611 144.37 88.1645 143.707 88.7714C143.051 89.3783 142.724 90.2279 142.724 91.3203V98.2266H139.022V84.6568H141.825L142.372 86.9386H142.554C142.974 86.178 143.541 85.5671 144.253 85.1058C144.973 84.6365 145.754 84.4019 146.595 84.4019ZM156.026 95.5199C156.674 95.5199 157.451 95.3783 158.357 95.0951V97.8504C157.434 98.263 156.301 98.4694 154.958 98.4694C153.477 98.4694 152.397 98.0972 151.718 97.3527C151.046 96.6002 150.71 95.4754 150.71 93.9785V87.4363H148.938V85.8705L150.977 84.6325L152.045 81.768H154.412V84.6568H158.211V87.4363H154.412V93.9785C154.412 94.5044 154.558 94.8928 154.849 95.1437C155.148 95.3945 155.541 95.5199 156.026 95.5199ZM175.398 83.358C173.982 83.358 172.886 83.8921 172.109 84.9602C171.332 86.0202 170.944 87.501 170.944 89.4026C170.944 93.3594 172.428 95.3379 175.398 95.3379C176.644 95.3379 178.153 95.0263 179.925 94.4033V97.5591C178.469 98.1659 176.842 98.4694 175.046 98.4694C172.465 98.4694 170.49 97.6885 169.123 96.1268C167.755 94.557 167.072 92.3075 167.072 89.3783C167.072 87.5334 167.407 85.9191 168.079 84.5354C168.751 83.1436 169.714 82.0795 170.968 81.3432C172.23 80.5987 173.707 80.2265 175.398 80.2265C177.122 80.2265 178.853 80.6432 180.593 81.4767L179.379 84.5354C178.716 84.2198 178.048 83.9447 177.376 83.71C176.705 83.4754 176.045 83.358 175.398 83.358ZM195.947 98.2266H192.245V90.3008C192.245 88.3425 191.517 87.3634 190.06 87.3634C189.025 87.3634 188.276 87.7154 187.815 88.4194C187.354 89.1234 187.123 90.2643 187.123 91.8422V98.2266H183.421V79.3405H187.123V83.1881C187.123 83.4875 187.095 84.1915 187.038 85.3L186.953 86.3924H187.147C187.973 85.0654 189.283 84.4019 191.08 84.4019C192.674 84.4019 193.884 84.8307 194.709 85.6885C195.534 86.5462 195.947 87.7761 195.947 89.3783V98.2266ZM208.376 98.2266L207.66 96.3817H207.563C206.94 97.1666 206.296 97.7128 205.633 98.0203C204.977 98.3197 204.12 98.4694 203.06 98.4694C201.757 98.4694 200.729 98.0972 199.977 97.3527C199.232 96.6083 198.86 95.5483 198.86 94.1727C198.86 92.7323 199.362 91.6723 200.365 90.9926C201.377 90.3048 202.898 89.9245 204.929 89.8517L207.284 89.7788V89.1841C207.284 87.8085 206.58 87.1207 205.172 87.1207C204.087 87.1207 202.813 87.4484 201.348 88.1038L200.122 85.6035C201.684 84.7862 203.416 84.3776 205.317 84.3776C207.138 84.3776 208.534 84.7741 209.505 85.5671C210.476 86.3601 210.961 87.5657 210.961 89.1841V98.2266H208.376ZM207.284 91.9393L205.851 91.9879C204.775 92.0202 203.974 92.2145 203.448 92.5705C202.922 92.9265 202.659 93.4687 202.659 94.1969C202.659 95.2408 203.258 95.7627 204.456 95.7627C205.313 95.7627 205.997 95.5159 206.507 95.0223C207.025 94.5287 207.284 93.8733 207.284 93.056V91.9393ZM220.501 95.5199C221.149 95.5199 221.926 95.3783 222.832 95.0951V97.8504C221.909 98.263 220.777 98.4694 219.433 98.4694C217.953 98.4694 216.872 98.0972 216.193 97.3527C215.521 96.6002 215.185 95.4754 215.185 93.9785V87.4363H213.413V85.8705L215.452 84.6325L216.52 81.768H218.887V84.6568H222.686V87.4363H218.887V93.9785C218.887 94.5044 219.033 94.8928 219.324 95.1437C219.623 95.3945 220.016 95.5199 220.501 95.5199Z" fill="black"/>
<defs>
<clipPath id="clip0_206_157">
<rect x="36" width="153" height="47.6778" rx="12" fill="white"/>
</clipPath>
</defs>
</svg>
