<svg width="48" height="48" viewBox="0 0 48 48" fill="none" xmlns="http://www.w3.org/2000/svg">
<circle cx="24" cy="24" r="23.5" fill="white" stroke="#646BC6"/>
<path d="M24.04 14C21.42 14 19.29 16.13 19.29 18.75C19.29 21.32 21.3 23.4 23.92 23.49C24 23.48 24.08 23.48 24.14 23.49H24.21C25.4394 23.449 26.6046 22.9315 27.4593 22.0469C28.314 21.1623 28.7912 19.98 28.79 18.75C28.79 16.13 26.66 14 24.04 14ZM29.12 26.149C26.33 24.289 21.78 24.289 18.97 26.149C17.7 26.999 17 28.149 17 29.379C17 30.609 17.7 31.749 18.96 32.589C20.36 33.529 22.2 33.999 24.04 33.999C25.88 33.999 27.72 33.529 29.12 32.589C30.38 31.739 31.08 30.599 31.08 29.359C31.07 28.129 30.38 26.989 29.12 26.149Z" fill="#646BC6"/>
</svg>
