<svg width="24" height="24" viewBox="0 0 24 24" fill="none" xmlns="http://www.w3.org/2000/svg">
<path fill-rule="evenodd" clip-rule="evenodd" d="M10.0933 3C7.37886 3 5.16753 5.20261 5.16753 7.90652C5.16753 9.21147 5.54735 10.8296 6.33731 12.1825C6.56379 12.5703 6.82975 12.9387 7.13376 13.2668C7.10926 13.4306 7.07472 13.5588 7.03982 13.6364C6.99418 13.7384 6.97708 13.737 6.96968 13.7396C6.51776 13.9102 5.18762 14.0221 3.92991 14.4136C2.67237 14.8051 1.35577 15.5946 1.01119 17.1962C0.973477 17.372 1.03252 17.5546 1.16647 17.6752C6.08905 22.1083 14.1001 22.1083 19.0227 17.6752H19.0225C19.1346 17.574 19.1954 17.4283 19.1881 17.2779C20.6054 16.8442 21.9391 16.1213 23.0692 15.1021C23.203 14.9813 23.262 14.7989 23.2239 14.623C22.9398 13.3059 21.8483 12.6513 20.8324 12.3353C19.817 12.0195 18.7461 11.9239 18.4213 11.8014C18.4211 11.8014 18.4209 11.8012 18.4208 11.8012V11.8014C18.4153 11.8014 18.4185 11.8109 18.391 11.7575C18.3735 11.7234 18.3529 11.6643 18.3346 11.5842C18.5799 11.3186 18.7941 11.0221 18.9756 10.7111C19.615 9.61636 19.9194 8.3177 19.9194 7.25959C19.9194 5.05437 18.1151 3.25451 15.8986 3.25451C14.9162 3.25451 14.011 3.60826 13.3109 4.19464C12.4466 3.45078 11.3212 3.0003 10.0935 3.0003L10.0933 3ZM10.0933 4.00665C12.2617 4.00665 14.0108 5.74684 14.0108 7.90643C14.0108 9.0081 13.6588 10.5104 12.9777 11.6761C12.2965 12.842 11.354 13.6438 10.0932 13.6438C8.83411 13.6438 7.89187 12.842 7.21101 11.6761C6.53015 10.5102 6.17835 9.0081 6.17835 7.90626C6.17835 5.7463 7.92499 4.00647 10.0932 4.00647L10.0933 4.00665ZM15.8984 4.26086C17.569 4.26086 18.9086 5.59759 18.9086 7.2593C18.9086 8.11444 18.6318 9.29687 18.1017 10.2047C17.5715 11.1125 16.8558 11.7179 15.8984 11.7179C15.3005 11.7179 14.8113 11.4872 14.3835 11.0862C14.8127 10.011 15.0214 8.87269 15.0214 7.90622C15.0214 6.78734 14.6421 5.75453 14.0055 4.92797C14.5224 4.51065 15.1796 4.26064 15.8984 4.26064V4.26086ZM13.9386 12.0281C14.4804 12.4501 15.1426 12.7247 15.8984 12.7247C16.5063 12.7247 17.047 12.5502 17.5167 12.263C17.6323 12.4638 17.8213 12.651 18.0613 12.7421H18.0611C18.0613 12.7421 18.0615 12.7423 18.0616 12.7423C18.7356 12.9972 19.6708 13.0288 20.5309 13.2963C21.2962 13.5344 21.8976 13.8657 22.1556 14.5598C21.1852 15.3745 20.0587 15.9624 18.8594 16.3251C18.3045 15.2933 17.2624 14.7265 16.2579 14.4138C15.0006 14.0223 13.6711 13.9103 13.219 13.7396V13.7394C13.2188 13.7394 13.2188 13.7394 13.2187 13.7393C13.1783 13.724 13.1572 13.7128 13.1101 13.6216C13.0761 13.5554 13.0412 13.4484 13.0146 13.3083C13.3352 12.9698 13.6145 12.5869 13.8509 12.1824C13.8807 12.1313 13.9097 12.0798 13.9383 12.0281L13.9386 12.0281ZM7.98373 13.9984C8.58811 14.4022 9.29293 14.6505 10.0934 14.6505C10.8834 14.6505 11.5803 14.4091 12.1793 14.0151C12.1896 14.0376 12.2003 14.0597 12.2116 14.0816C12.3427 14.336 12.568 14.57 12.8611 14.6808C13.6627 14.9835 14.8552 15.0314 15.9565 15.3743C16.9666 15.6889 17.7892 16.1525 18.1137 17.1303C13.6565 20.9264 6.53186 20.9264 2.07492 17.1301C2.39851 16.1526 3.22087 15.6889 4.23133 15.3743C5.33289 15.0314 6.52626 14.9833 7.32786 14.6806C7.63383 14.5651 7.84534 14.3081 7.9627 14.0463C7.96975 14.0305 7.9768 14.0144 7.98332 13.9984L7.98373 13.9984Z" fill="black"/>
</svg>
